<svg width="50" height="18" viewBox="0 0 50 18" fill="none" xmlns="http://www.w3.org/2000/svg">
<path d="M0.28 17.5V0.723999H3.952L10.024 14.116H10.12L9.784 0.723999H12.448V17.5H8.776L2.728 4.108H2.608L2.944 17.5H0.28ZM16.9909 17.5V0.723999H26.0629V3.148L18.4789 3.076L19.7509 1.828L19.6549 8.284L18.4309 7.852H25.2949V10.204H18.4309L19.6789 9.7L19.7749 17.5H16.9909ZM31.5974 17.5L31.6454 3.076L26.9654 3.148V0.723999H39.0854V3.148L34.3334 3.076L34.4054 17.5H31.5974ZM44.6005 17.812C43.9445 17.812 43.3125 17.748 42.7045 17.62C42.0965 17.492 41.5445 17.348 41.0485 17.188C40.5685 17.012 40.1845 16.86 39.8965 16.732C39.6245 16.604 39.4885 16.54 39.4885 16.54L40.1845 14.308C40.1845 14.308 40.3205 14.364 40.5925 14.476C40.8805 14.588 41.2565 14.732 41.7205 14.908C42.2005 15.068 42.7125 15.212 43.2565 15.34C43.8165 15.452 44.3605 15.508 44.8885 15.508C45.1925 15.508 45.4565 15.484 45.6805 15.436C45.9045 15.372 46.0805 15.284 46.2085 15.172C46.3685 15.044 46.5045 14.852 46.6165 14.596C46.7285 14.34 46.7845 14.044 46.7845 13.708C46.7845 13.164 46.6325 12.748 46.3285 12.46C46.0405 12.156 45.6565 11.924 45.1765 11.764C44.7125 11.588 44.2005 11.428 43.6405 11.284C43.1605 11.14 42.6805 10.98 42.2005 10.804C41.7205 10.628 41.2805 10.396 40.8805 10.108C40.4805 9.82 40.1605 9.444 39.9205 8.98C39.6805 8.5 39.5605 7.884 39.5605 7.132C39.5605 5.932 39.9445 4.972 40.7125 4.252C41.4805 3.516 42.7365 3.148 44.4805 3.148C45.1045 3.148 45.7045 3.196 46.2805 3.292C46.8565 3.372 47.3685 3.468 47.8165 3.58C48.2645 3.676 48.6005 3.764 48.8245 3.844L48.4165 6.052C48.4165 6.052 48.2885 6.02 48.0325 5.956C47.7765 5.892 47.4405 5.828 47.0245 5.764C46.6085 5.684 46.1445 5.612 45.6325 5.548C45.1365 5.484 44.6405 5.452 44.1445 5.452C43.6965 5.452 43.3605 5.476 43.1365 5.524C42.9125 5.572 42.7365 5.644 42.6085 5.74C42.5125 5.82 42.4245 5.956 42.3445 6.148C42.2645 6.324 42.2245 6.548 42.2245 6.82C42.2245 7.332 42.3845 7.732 42.7045 8.02C43.0245 8.308 43.4405 8.532 43.9525 8.692C44.4645 8.852 45.0005 9.02 45.5605 9.196C46.0405 9.324 46.5045 9.476 46.9525 9.652C47.4165 9.828 47.8405 10.06 48.2245 10.348C48.6085 10.636 48.9125 11.02 49.1365 11.5C49.3605 11.964 49.4725 12.564 49.4725 13.3C49.4725 14.644 49.0485 15.732 48.2005 16.564C47.3685 17.396 46.1685 17.812 44.6005 17.812Z" fill="white"/>
</svg>
